<?xml version="1.0" standalone="no"?>
<!DOCTYPE svg PUBLIC "-//W3C//DTD SVG 20010904//EN"
 "http://www.w3.org/TR/2001/REC-SVG-20010904/DTD/svg10.dtd">
<svg version="1.0" xmlns="http://www.w3.org/2000/svg"
 width="152.000000pt" height="152.000000pt" viewBox="0 0 152.000000 152.000000"
 preserveAspectRatio="xMidYMid meet">

<g transform="translate(0.000000,152.000000) scale(0.100000,-0.100000)"
fill="#000000" stroke="none">
<path d="M610 1505 c-304 -65 -532 -294 -594 -597 -99 -481 294 -935 784 -905
117 8 191 27 295 77 191 93 345 279 400 485 67 250 -7 534 -188 724 -172 179
-455 267 -697 216z m295 -170 c109 -28 184 -72 271 -159 122 -123 174 -246
174 -416 0 -170 -52 -293 -174 -416 -123 -122 -246 -174 -416 -174 -170 0
-293 52 -416 174 -122 123 -174 246 -174 416 0 170 52 293 174 416 86 86 161
131 266 158 73 19 221 20 295 1z"/>
<path d="M623 1231 c-253 -73 -404 -339 -338 -596 80 -304 430 -456 709 -307
65 34 164 133 198 198 77 143 77 325 0 468 -34 65 -133 164 -198 198 -109 58
-251 73 -371 39z m218 -115 c271 -63 376 -395 189 -599 -140 -153 -362 -165
-513 -27 -156 142 -166 363 -24 517 50 54 113 92 181 109 67 16 100 16 167 0z"/>
<path d="M675 1017 c-151 -58 -226 -221 -164 -357 32 -72 65 -106 130 -139 85
-43 153 -43 238 0 202 101 200 384 -3 480 -67 32 -144 38 -201 16z m163 -72
c104 -44 151 -167 103 -270 -71 -153 -291 -153 -362 0 -33 72 -19 166 34 224
52 56 151 76 225 46z"/>
</g>
</svg>
